<svg width="32" height="32" viewBox="0 0 32 32" fill="none" xmlns="http://www.w3.org/2000/svg">
<path d="M29.8975 12.1575C29.7725 11.7732 29.5365 11.4344 29.2193 11.184C28.9021 10.9335 28.5179 10.7825 28.115 10.75L20.74 10.155L17.8925 3.26876C17.7385 2.89353 17.4764 2.57257 17.1395 2.34668C16.8027 2.12079 16.4062 2.00018 16.0006 2.00018C15.595 2.00018 15.1986 2.12079 14.8617 2.34668C14.5248 2.57257 14.2627 2.89353 14.1087 3.26876L11.2637 10.1538L3.88499 10.75C3.48146 10.7841 3.09698 10.9366 2.77971 11.1883C2.46244 11.4399 2.2265 11.7797 2.10144 12.1648C1.97639 12.55 1.96778 12.9635 2.0767 13.3536C2.18562 13.7436 2.40722 14.0928 2.71374 14.3575L8.33874 19.2113L6.62499 26.4688C6.52915 26.863 6.55261 27.2769 6.69242 27.6578C6.83222 28.0388 7.08205 28.3695 7.41019 28.6082C7.73834 28.8469 8.13 28.9827 8.53546 28.9984C8.94092 29.014 9.3419 28.9089 9.68749 28.6963L16 24.8113L22.3162 28.6963C22.662 28.9064 23.0621 29.0095 23.4663 28.9926C23.8705 28.9758 24.2607 28.8397 24.5877 28.6016C24.9148 28.3634 25.164 28.0338 25.3041 27.6543C25.4442 27.2748 25.4689 26.8623 25.375 26.4688L23.655 19.21L29.28 14.3563C29.589 14.092 29.8126 13.7421 29.9226 13.3506C30.0325 12.9592 30.0238 12.544 29.8975 12.1575ZM27.98 12.8413L21.8925 18.0913C21.7537 18.2109 21.6504 18.3664 21.594 18.5408C21.5375 18.7152 21.5301 18.9017 21.5725 19.08L23.4325 26.93C23.4373 26.9408 23.4378 26.9531 23.4338 26.9642C23.4299 26.9754 23.4218 26.9846 23.4112 26.99C23.3887 27.0075 23.3825 27.0038 23.3637 26.99L16.5237 22.7838C16.3662 22.6869 16.1849 22.6356 16 22.6356C15.8151 22.6356 15.6338 22.6869 15.4762 22.7838L8.63624 26.9925C8.61749 27.0038 8.61249 27.0075 8.58874 26.9925C8.57819 26.9871 8.57011 26.9779 8.56615 26.9667C8.5622 26.9556 8.56268 26.9433 8.56749 26.9325L10.4275 19.0825C10.4699 18.9042 10.4625 18.7177 10.406 18.5433C10.3496 18.3689 10.2463 18.2134 10.1075 18.0938L4.01999 12.8438C4.00499 12.8313 3.99124 12.82 4.00374 12.7813C4.01624 12.7425 4.02624 12.7475 4.04499 12.745L12.035 12.1C12.2183 12.0843 12.3936 12.0183 12.5418 11.9094C12.69 11.8004 12.8053 11.6527 12.875 11.4825L15.9525 4.03126C15.9625 4.01001 15.9662 4.00001 15.9962 4.00001C16.0262 4.00001 16.03 4.01001 16.04 4.03126L19.125 11.4825C19.1953 11.6528 19.3113 11.8003 19.4602 11.9089C19.6091 12.0174 19.7851 12.0827 19.9687 12.0975L27.9587 12.7425C27.9775 12.7425 27.9887 12.7425 28 12.7788C28.0112 12.815 28 12.8288 27.98 12.8413Z" fill="black"/>
</svg>
